<svg xmlns="http://www.w3.org/2000/svg" viewBox="0 0 500 500"><g id="freepik--background-simple--inject-17"><path d="M418.84,123.09S394.33,73.35,340.19,66s-91.92,28.56-131.76,47c-20.86,9.65-44.69,5.9-66.84,10.57C70.78,138.46,44.1,232,73.6,285.22c25.54,46.06,70.48,70,138.92,75.53s116.44,12,177.72-33.16S447.44,188.5,418.84,123.09Z" style="fill:#11D9C5"></path><path d="M418.84,123.09S394.33,73.35,340.19,66s-91.92,28.56-131.76,47c-20.86,9.65-44.69,5.9-66.84,10.57C70.78,138.46,44.1,232,73.6,285.22c25.54,46.06,70.48,70,138.92,75.53s116.44,12,177.72-33.16S447.44,188.5,418.84,123.09Z" style="fill:#fff;opacity:0.7000000000000001"></path></g><g id="freepik--Envelope--inject-17"><path d="M385.84,310.43H124.53a14.37,14.37,0,0,1-14.35-14.35V146.56a14.37,14.37,0,0,1,14.35-14.35H385.84a14.36,14.36,0,0,1,14.35,14.35V296.08A14.36,14.36,0,0,1,385.84,310.43ZM124.53,136.21a10.36,10.36,0,0,0-10.35,10.35V296.08a10.36,10.36,0,0,0,10.35,10.35H385.84a10.36,10.36,0,0,0,10.35-10.35V146.56a10.36,10.36,0,0,0-10.35-10.35Z" style="fill:#11D9C5"></path><path d="M255.19,223.32a2,2,0,0,1-1-.26L112.76,143.43a2,2,0,1,1,2-3.48L255.18,219l141.1-80.14a2,2,0,0,1,2,3.48l-142.09,80.7A2,2,0,0,1,255.19,223.32Z" style="fill:#11D9C5"></path></g><g id="freepik--Floor--inject-17"><ellipse cx="257.26" cy="406.64" rx="202.28" ry="7.46" style="fill:#11D9C5"></ellipse><ellipse cx="257.26" cy="406.64" rx="202.28" ry="7.46" style="fill:#fff;opacity:0.5"></ellipse></g><g id="freepik--Plant--inject-17"><path d="M101.15,284.4s.93-3.4,1-3.62c.36-2.57-.46-7.76-3.09-9a3.43,3.43,0,0,0-4.68,2.07c-.71,1.93.19,4.3,1.24,5.93C96.82,281.67,101.14,284.4,101.15,284.4Z" style="fill:#11D9C5"></path><path d="M116.4,265.89c-2.9-.32-6.34,3.65-7.39,6-.1.21-1.16,3.58-1.1,3.58H108c-.55.62-1.13,1.3-1.75,2-1.13,1.39-2.4,3-3.66,4.79a60.84,60.84,0,0,0-3.79,6.05,45.41,45.41,0,0,0-3.25,7.29s0,.07,0,.1c0-.86,0-3.24,0-3.42-.33-2.58-2.49-7.36-5.35-7.89a3.45,3.45,0,0,0-4,3.24c-.16,2,1.32,4.09,2.77,5.39,1.63,1.45,6.16,2.87,6.52,3A61.56,61.56,0,0,0,93.5,304c-.28,1.56-.51,3.14-.72,4.72,0-.73,0-1.39,0-1.49-.33-2.57-2.49-7.36-5.36-7.89a3.45,3.45,0,0,0-4,3.24c-.17,2,1.32,4.1,2.77,5.39s5.3,2.6,6.32,2.92c-.07.61-.15,1.22-.22,1.83-.35,2.92-.69,5.83-1.11,8.68-.14,1-.32,2-.5,3,0-.66,0-1.21,0-1.29-.33-2.58-2.49-7.36-5.35-7.89a3.45,3.45,0,0,0-4,3.24c-.16,2,1.32,4.09,2.77,5.39s4.93,2.46,6.15,2.86c-.22,1-.43,2-.68,3-.19.65-.32,1.29-.54,1.94s-.42,1.28-.62,1.91c-.44,1.21-.88,2.45-1.34,3.61-.31.81-.62,1.58-.93,2.35.16-1,.42-3,.43-3.13a13.38,13.38,0,0,0-1.8-6.5,3.84,3.84,0,0,0,0-.76,3.45,3.45,0,0,0-4.22-2.93c-2.81.75-4.59,5.69-4.72,8.29,0,.15.09,1.82.17,2.87-.14-.61-.27-1.2-.43-1.83-.29-1.25-.62-2.48-1-3.81-.2-.63-.39-1.27-.59-1.92s-.45-1.31-.68-2c-.55-1.52-1.19-3-1.87-4.55,1.09-.26,5-1.24,6.49-2.43s3.18-3.11,3.16-5.17a3.43,3.43,0,0,0-3.72-3.52c-2.89.31-5.4,4.92-5.93,7.47,0,.16-.2,2-.28,3-.41-.9-.82-1.81-1.27-2.71-1.29-2.6-2.68-5.2-4.06-7.8-.42-.79-.83-1.59-1.24-2.38.39-.09,5-1.16,6.72-2.49,1.54-1.18,3.18-3.12,3.16-5.17a3.45,3.45,0,0,0-3.72-3.53c-2.89.32-5.4,4.93-5.93,7.47,0,.19-.28,2.88-.31,3.57-.91-1.75-1.8-3.51-2.61-5.28A60.9,60.9,0,0,1,59,296.93c.18,0,5-1.13,6.77-2.49,1.54-1.18,3.17-3.12,3.15-5.17a3.45,3.45,0,0,0-3.72-3.53c-2.89.32-5.4,4.93-5.93,7.47,0,.17-.22,2.22-.28,3.2h-.17a44.74,44.74,0,0,1-1.48-7.77c-.16-1.45-.24-2.84-.28-4.19.92-.11,5.1-.67,6.84-1.72S67.4,280,67.61,278A3.44,3.44,0,0,0,64.3,274c-2.91,0-5.91,4.3-6.71,6.77,0,.13-.34,1.55-.53,2.58,0-.61,0-1.24,0-1.83,0-2.2.14-4.21.28-6,.09-1,.18-1.92.28-2.78.85-.58,4.21-2.95,5.25-4.65s1.84-4.05,1.08-6a3.45,3.45,0,0,0-4.74-1.95c-2.59,1.34-3.27,6.54-2.84,9.1,0,.23,1,3.62,1.06,3.59l.05,0c-.11.82-.23,1.7-.33,2.67-.18,1.78-.36,3.8-.41,6a60,60,0,0,0,.17,7.13,44.57,44.57,0,0,0,1.32,7.88l0,.09c-.46-.72-1.81-2.69-1.93-2.83-1.7-2-6.14-4.76-8.82-3.62A3.44,3.44,0,0,0,46,295.1c1,1.8,3.36,2.69,5.28,3,2.16.32,6.72-1,7.09-1.11a59.61,59.61,0,0,0,2.76,7.65c.63,1.45,1.3,2.9,2,4.33-.41-.61-.79-1.15-.85-1.22-1.7-2-6.14-4.76-8.82-3.62A3.44,3.44,0,0,0,51.89,309c1,1.8,3.36,2.69,5.28,3s5.86-.76,6.89-1.06c.27.55.54,1.1.82,1.65,1.32,2.63,2.65,5.25,3.87,7.86.43.91.82,1.84,1.22,2.76-.37-.55-.69-1-.74-1.06-1.7-2-6.14-4.77-8.82-3.63a3.45,3.45,0,0,0-1.53,4.9c1,1.8,3.36,2.69,5.28,3s5.48-.67,6.7-1c.38,1,.76,1.91,1.08,2.85.21.65.45,1.26.62,1.92l.54,1.94c.3,1.24.61,2.52.87,3.74.19.85.35,1.66.52,2.48-.42-.92-1.28-2.7-1.37-2.85-1.38-2.2-5.34-5.63-8.17-4.92a3.45,3.45,0,0,0-2.25,4.61c.71,1.93,2.92,3.17,4.77,3.74,2,.62,6.57,0,7.14,0,.27,1.36.52,2.67.74,3.92.76,4.32,1.23,7.95,1.52,10.49,0,.45.1.86.14,1.24H68.25L71,407.2H86.87l2.7-52.73H81.41l.18-.38c1.12-2.33,2.68-5.68,4.35-9.79.54-1.29,1.08-2.68,1.62-4.12.55.11,5,1,7.12.55,1.89-.43,4.19-1.5,5-3.37a3.44,3.44,0,0,0-1.9-4.76c-2.76-.93-7,2.21-8.51,4.3-.09.12-.93,1.57-1.44,2.49.22-.59.44-1.15.65-1.76.44-1.2.85-2.41,1.29-3.71l.57-1.93c.21-.64.35-1.34.52-2,.38-1.57.68-3.19,1-4.82,1,.38,4.81,1.69,6.75,1.55s4.37-.85,5.49-2.57a3.44,3.44,0,0,0-1.16-5c-2.58-1.33-7.22,1.12-9.06,3-.12.11-1.29,1.58-1.92,2.39.15-1,.31-2,.44-3,.35-2.89.63-5.82.91-8.74.09-.9.19-1.79.28-2.68.37.14,4.8,1.79,7,1.63,1.94-.13,4.37-.84,5.49-2.57a3.44,3.44,0,0,0-1.16-5c-2.59-1.33-7.22,1.13-9.07,3-.13.14-1.82,2.25-2.22,2.8.2-2,.43-3.92.73-5.84A60.2,60.2,0,0,1,96,296.41c.17.07,4.79,1.81,7,1.66,1.93-.14,4.36-.85,5.48-2.57a3.45,3.45,0,0,0-1.15-5c-2.59-1.33-7.23,1.13-9.07,3-.12.12-1.41,1.73-2,2.5l-.15-.07a43.81,43.81,0,0,1,3.06-7.3c.66-1.3,1.36-2.5,2.07-3.65.83.41,4.63,2.26,6.65,2.34s4.43-.36,5.74-1.95a3.45,3.45,0,0,0-.6-5.09c-2.43-1.61-7.31.32-9.34,1.94-.11.09-1.14,1.11-1.87,1.86.33-.51.66-1.05,1-1.54,1.22-1.83,2.45-3.44,3.55-4.85.63-.8,1.22-1.5,1.77-2.16,1,0,5.14-.14,6.94-1s3.77-2.36,4.2-4.37A3.45,3.45,0,0,0,116.4,265.89ZM84.35,343.63c-1.74,4-3.35,7.31-4.51,9.6l-.64,1.24H79c-.06-.45-.12-.94-.2-1.48-.35-2.57-.9-6.22-1.77-10.57-.27-1.37-.58-2.83-.92-4.33a39.73,39.73,0,0,0,4-1.87c1.49,1.61,5.3,3.5,5.8,3.74C85.38,341.24,84.86,342.47,84.35,343.63Z" style="fill:#11D9C5"></path><path d="M49.47,283.27c2.09.92,7.2.8,7.2.8s-1.09-3.34-1.19-3.55c-1.12-2.34-4.67-6.21-7.55-5.82A3.44,3.44,0,0,0,45.17,279C45.64,281,47.69,282.5,49.47,283.27Z" style="fill:#11D9C5"></path><path d="M49.47,283.27c2.09.92,7.2.8,7.2.8s-1.09-3.34-1.19-3.55c-1.12-2.34-4.67-6.21-7.55-5.82A3.44,3.44,0,0,0,45.17,279C45.64,281,47.69,282.5,49.47,283.27Z" style="fill:#fff;opacity:0.30000000000000004"></path><path d="M101.15,284.4s.93-3.4,1-3.62c.36-2.57-.46-7.76-3.09-9a3.43,3.43,0,0,0-4.68,2.07c-.71,1.93.19,4.3,1.24,5.93C96.82,281.67,101.14,284.4,101.15,284.4Z" style="fill:#fff;opacity:0.30000000000000004"></path><path d="M58.33,297a59.61,59.61,0,0,0,2.76,7.65c.63,1.45,1.3,2.9,2,4.33-.41-.61-.79-1.15-.85-1.22-1.7-2-6.14-4.76-8.82-3.62A3.44,3.44,0,0,0,51.89,309c1,1.8,3.36,2.69,5.28,3s5.86-.76,6.89-1.06c.27.55.54,1.1.82,1.65,1.32,2.63,2.65,5.25,3.87,7.86.43.91.82,1.84,1.22,2.76-.37-.55-.69-1-.74-1.06-1.7-2-6.14-4.77-8.82-3.63a3.45,3.45,0,0,0-1.53,4.9c1,1.8,3.36,2.69,5.28,3s5.48-.67,6.7-1c.38,1,.76,1.91,1.08,2.85.21.65.45,1.26.62,1.92l.54,1.94c.3,1.24.61,2.52.87,3.74.19.85.35,1.66.52,2.48-.42-.92-1.28-2.7-1.37-2.85-1.38-2.2-5.34-5.63-8.17-4.92a3.45,3.45,0,0,0-2.25,4.61c.71,1.93,2.92,3.17,4.77,3.74,2,.62,6.57,0,7.14,0,.27,1.36.52,2.67.74,3.92.76,4.32,1.23,7.95,1.52,10.49,0,.45.1.86.14,1.24H68.25L71,407.2H86.87l2.7-52.73H81.41l.18-.38c1.12-2.33,2.68-5.68,4.35-9.79.54-1.29,1.08-2.68,1.62-4.12.55.11,5,1,7.12.55,1.89-.43,4.19-1.5,5-3.37a3.44,3.44,0,0,0-1.9-4.76c-2.76-.93-7,2.21-8.51,4.3-.09.12-.93,1.57-1.44,2.49.22-.59.44-1.15.65-1.76.44-1.2.85-2.41,1.29-3.71l.57-1.93c.21-.64.35-1.34.52-2,.38-1.57.68-3.19,1-4.82,1,.38,4.81,1.69,6.75,1.55s4.37-.85,5.49-2.57a3.44,3.44,0,0,0-1.16-5c-2.58-1.33-7.22,1.12-9.06,3-.12.11-1.29,1.58-1.92,2.39.15-1,.31-2,.44-3,.35-2.89.63-5.82.91-8.74.09-.9.19-1.79.28-2.68.37.14,4.8,1.79,7,1.63,1.94-.13,4.37-.84,5.49-2.57a3.44,3.44,0,0,0-1.16-5c-2.59-1.33-7.22,1.13-9.07,3-.13.14-1.82,2.25-2.22,2.8.2-2,.43-3.92.73-5.84A60.2,60.2,0,0,1,96,296.41c.17.07,4.79,1.81,7,1.66,1.93-.14,4.36-.85,5.48-2.57a3.45,3.45,0,0,0-1.15-5c-2.59-1.33-7.23,1.13-9.07,3-.12.12-1.41,1.73-2,2.5l-.15-.07a43.81,43.81,0,0,1,3.06-7.3c.66-1.3,1.36-2.5,2.07-3.65.83.41,4.63,2.26,6.65,2.34s4.43-.36,5.74-1.95a3.45,3.45,0,0,0-.6-5.09c-2.43-1.61-7.31.32-9.34,1.94-.11.09-1.14,1.11-1.87,1.86.33-.51.66-1.05,1-1.54,1.22-1.83,2.45-3.44,3.55-4.85.63-.8,1.22-1.5,1.77-2.16,1,0,5.14-.14,6.94-1s3.77-2.36,4.2-4.37a3.45,3.45,0,0,0-2.88-4.24c-2.9-.32-6.34,3.65-7.39,6-.1.21-1.16,3.58-1.1,3.58H108c-.55.62-1.13,1.3-1.75,2-1.13,1.39-2.4,3-3.66,4.79a60.84,60.84,0,0,0-3.79,6.05,45.41,45.41,0,0,0-3.25,7.29s0,.07,0,.1c0-.86,0-3.24,0-3.42-.33-2.58-2.49-7.36-5.35-7.89a3.45,3.45,0,0,0-4,3.24c-.16,2,1.32,4.09,2.77,5.39,1.63,1.45,6.16,2.87,6.52,3A61.56,61.56,0,0,0,93.5,304c-.28,1.56-.51,3.14-.72,4.72,0-.73,0-1.39,0-1.49-.33-2.57-2.49-7.36-5.36-7.89a3.45,3.45,0,0,0-4,3.24c-.17,2,1.32,4.1,2.77,5.39s5.3,2.6,6.32,2.92c-.07.61-.15,1.22-.22,1.83-.35,2.92-.69,5.83-1.11,8.68-.14,1-.32,2-.5,3,0-.66,0-1.21,0-1.29-.33-2.58-2.49-7.36-5.35-7.89a3.45,3.45,0,0,0-4,3.24c-.16,2,1.32,4.09,2.77,5.39s4.93,2.46,6.15,2.86c-.22,1-.43,2-.68,3-.19.65-.32,1.29-.54,1.94s-.42,1.28-.62,1.91c-.44,1.21-.88,2.45-1.34,3.61-.31.81-.62,1.58-.93,2.35.16-1,.42-3,.43-3.13a13.38,13.38,0,0,0-1.8-6.5,3.84,3.84,0,0,0,0-.76,3.45,3.45,0,0,0-4.22-2.93c-2.81.75-4.59,5.69-4.72,8.29,0,.15.09,1.82.17,2.87-.14-.61-.27-1.2-.43-1.83-.29-1.25-.62-2.48-1-3.81-.2-.63-.39-1.27-.59-1.92s-.45-1.31-.68-2c-.55-1.52-1.19-3-1.87-4.55,1.09-.26,5-1.24,6.49-2.43s3.18-3.11,3.16-5.17a3.43,3.43,0,0,0-3.72-3.52c-2.89.31-5.4,4.92-5.93,7.47,0,.16-.2,2-.28,3-.41-.9-.82-1.81-1.27-2.71-1.29-2.6-2.68-5.2-4.06-7.8-.42-.79-.83-1.59-1.24-2.38.39-.09,5-1.16,6.72-2.49,1.54-1.18,3.18-3.12,3.16-5.17a3.45,3.45,0,0,0-3.72-3.53c-2.89.32-5.4,4.93-5.93,7.47,0,.19-.28,2.88-.31,3.57-.91-1.75-1.8-3.51-2.61-5.28A60.9,60.9,0,0,1,59,296.93c.18,0,5-1.13,6.77-2.49,1.54-1.18,3.17-3.12,3.15-5.17a3.45,3.45,0,0,0-3.72-3.53c-2.89.32-5.4,4.93-5.93,7.47,0,.17-.22,2.22-.28,3.2h-.17a44.74,44.74,0,0,1-1.48-7.77c-.16-1.45-.24-2.84-.28-4.19.92-.11,5.1-.67,6.84-1.72S67.4,280,67.61,278A3.44,3.44,0,0,0,64.3,274c-2.91,0-5.91,4.3-6.71,6.77,0,.13-.34,1.55-.53,2.58,0-.61,0-1.24,0-1.83,0-2.2.14-4.21.28-6,.09-1,.18-1.92.28-2.78.85-.58,4.21-2.95,5.25-4.65s1.84-4.05,1.08-6a3.45,3.45,0,0,0-4.74-1.95c-2.59,1.34-3.27,6.54-2.84,9.1,0,.23,1,3.62,1.06,3.59l.05,0c-.11.82-.23,1.7-.33,2.67-.18,1.78-.36,3.8-.41,6a60,60,0,0,0,.17,7.13,44.57,44.57,0,0,0,1.32,7.88l0,.09c-.46-.72-1.81-2.69-1.93-2.83-1.7-2-6.14-4.76-8.82-3.62A3.44,3.44,0,0,0,46,295.1c1,1.8,3.36,2.69,5.28,3C53.4,298.39,58,297.07,58.33,297ZM80.1,336.22c1.49,1.61,5.3,3.5,5.8,3.74-.52,1.28-1,2.51-1.55,3.67-1.74,4-3.35,7.31-4.51,9.6l-.64,1.24H79c-.06-.45-.12-.94-.2-1.48-.35-2.57-.9-6.22-1.77-10.57-.27-1.37-.58-2.83-.92-4.33A39.73,39.73,0,0,0,80.1,336.22Z" style="fill:#fff;opacity:0.30000000000000004"></path></g><g id="freepik--Mails--inject-17"><rect x="377.92" y="350.86" width="19.01" height="12.49" transform="translate(-16.94 19.3) rotate(-2.79)" style="fill:#11D9C5"></rect><path d="M378.23,364.31a.51.51,0,0,1-.5-.48l-.6-12.47a.52.52,0,0,1,.12-.36.53.53,0,0,1,.35-.17l19-.92a.47.47,0,0,1,.53.47l.61,12.48a.53.53,0,0,1-.13.36.48.48,0,0,1-.35.16l-19,.93Zm-.08-12.5.56,11.48,18-.88-.56-11.48Z" style="fill:#263238"></path><path d="M387.42,357.61a.45.45,0,0,1-.25-.07l-9.8-5.78a.49.49,0,0,1-.18-.68.51.51,0,0,1,.69-.18l9.51,5.61,8.92-6.51a.51.51,0,0,1,.7.11.5.5,0,0,1-.11.7l-9.18,6.7A.49.49,0,0,1,387.42,357.61Z" style="fill:#263238"></path><rect x="391.87" y="402.13" width="19.01" height="4.11" transform="matrix(1, -0.07, 0.07, 1, -27.96, 29.83)" style="fill:#11D9C5"></rect><path d="M392,407.41a.5.5,0,0,1-.5-.46l-.29-4.1a.51.51,0,0,1,.46-.54l19-1.36a.51.51,0,0,1,.54.46l.29,4.1a.49.49,0,0,1-.12.37.51.51,0,0,1-.34.17l-19,1.36Zm.24-4.13.23,3.1,18-1.29-.23-3.11Z" style="fill:#263238"></path><path d="M401.38,404.68h-.08l-9.62-1.37a.5.5,0,0,1-.43-.57.51.51,0,0,1,.57-.42l9.52,1.35,9.23-2.7a.5.5,0,0,1,.62.34.51.51,0,0,1-.34.62l-9.33,2.73Z" style="fill:#263238"></path><rect x="394.9" y="389.43" width="19.01" height="7.6" transform="translate(110.2 -88.03) rotate(14.36)" style="fill:#11D9C5"></rect><path d="M412.66,399.76h-.12L394.13,395a.5.5,0,0,1-.36-.61l1.88-7.35a.5.5,0,0,1,.61-.36l18.41,4.71a.52.52,0,0,1,.31.23.46.46,0,0,1,0,.38l-1.88,7.36a.56.56,0,0,1-.23.31A.58.58,0,0,1,412.66,399.76Zm-17.8-5.57,17.44,4.47,1.64-6.4L396.5,387.8Z" style="fill:#263238"></path><path d="M404.4,393.73a.54.54,0,0,1-.3-.1l-8.26-6a.51.51,0,0,1-.11-.7.5.5,0,0,1,.7-.1l8.1,5.92,10-1.3a.5.5,0,0,1,.13,1l-10.15,1.32Z" style="fill:#263238"></path><rect x="379.75" y="371.66" width="19.01" height="12.49" transform="translate(-134.23 235.45) rotate(-28.93)" style="fill:#11D9C5"></rect><path d="M384,388.47l-.14,0a.48.48,0,0,1-.3-.24l-6-10.93a.49.49,0,0,1,.19-.68l16.64-9.19a.5.5,0,0,1,.68.19l6,10.93a.51.51,0,0,1-.2.68l-16.63,9.2A.53.53,0,0,1,384,388.47Zm-5.37-11.24,5.56,10.06,15.76-8.71-5.56-10.06Z" style="fill:#263238"></path><path d="M389.25,378.41h0l-11.33-.86a.5.5,0,1,1,.07-1l11,.84,5.15-9.77a.49.49,0,0,1,.67-.21.5.5,0,0,1,.21.68l-5.3,10.06A.49.49,0,0,1,389.25,378.41Z" style="fill:#263238"></path><rect x="417.39" y="396.98" width="19.01" height="5.14" transform="translate(-71.59 93.95) rotate(-11.59)" style="fill:#11D9C5"></rect><path d="M418.09,404.48a.48.48,0,0,1-.48-.4l-1-5a.51.51,0,0,1,.07-.38.49.49,0,0,1,.32-.21l18.62-3.83a.51.51,0,0,1,.38.08.49.49,0,0,1,.21.31l1,5a.5.5,0,0,1-.39.59l-18.62,3.82Zm-.44-5.15.84,4.06,17.64-3.62-.84-4.06Z" style="fill:#263238"></path><path d="M426.89,400.05h0l-9.83-.61a.49.49,0,0,1-.47-.53.47.47,0,0,1,.53-.46l9.69.6,8.68-4.37a.5.5,0,1,1,.45.89l-8.8,4.43A.42.42,0,0,1,426.89,400.05Z" style="fill:#263238"></path><rect x="329.51" y="336.46" width="19.01" height="7.08" transform="matrix(0.99, 0.16, -0.16, 0.99, 57.07, -48.63)" style="fill:#11D9C5"></rect><path d="M347.85,345.47h-.08l-18.78-3a.5.5,0,0,1-.41-.57l1.1-7a.48.48,0,0,1,.2-.33.49.49,0,0,1,.37-.09l18.78,3a.49.49,0,0,1,.41.57l-1.1,7a.49.49,0,0,1-.49.42Zm-18.21-3.87,17.79,2.8.95-6-17.79-2.81Z" style="fill:#263238"></path><path d="M339,340.5a.42.42,0,0,1-.24-.07l-8.84-5a.5.5,0,0,1,.49-.87l8.67,4.88,9.76-2a.5.5,0,0,1,.2,1l-9.94,2Z" style="fill:#263238"></path><rect x="318.66" y="326.03" width="19.01" height="7.08" transform="matrix(0.99, 0.16, -0.16, 0.99, 55.31, -47.07)" style="fill:#11D9C5"></rect><path d="M337,335h-.08l-18.78-2.95a.5.5,0,0,1-.41-.58l1.1-7a.46.46,0,0,1,.2-.32.49.49,0,0,1,.37-.09l18.78,2.95a.5.5,0,0,1,.41.58l-1.1,7a.46.46,0,0,1-.2.32A.45.45,0,0,1,337,335Zm-18.21-3.87,17.79,2.8.95-6-17.79-2.8Z" style="fill:#263238"></path><path d="M328.16,330.07a.51.51,0,0,1-.24-.07l-8.84-5a.51.51,0,0,1-.19-.69.5.5,0,0,1,.68-.19l8.67,4.89,9.76-2a.5.5,0,0,1,.59.39.51.51,0,0,1-.39.59l-9.94,2Z" style="fill:#263238"></path><rect x="353.17" y="345.93" width="19.01" height="9.05" transform="translate(341.75 -153.44) rotate(43.6)" style="fill:#11D9C5"></rect><path d="M366.43,360.79a.47.47,0,0,1-.34-.13l-13.77-13.11a.5.5,0,0,1,0-.71l6.24-6.56a.51.51,0,0,1,.35-.15.48.48,0,0,1,.36.14L373,353.38a.49.49,0,0,1,0,.7l-6.25,6.56a.49.49,0,0,1-.35.15Zm-13.05-13.62,13,12.42,5.56-5.84-13-12.41Z" style="fill:#263238"></path><path d="M372.68,354.24a.41.41,0,0,1-.16,0l-10-3.27a.49.49,0,0,1-.31-.3l-3.76-9.83a.5.5,0,1,1,.93-.36l3.67,9.61,9.78,3.2a.5.5,0,0,1-.15,1Z" style="fill:#263238"></path><rect x="350.23" y="372.52" width="19.01" height="12.49" transform="translate(307.86 -141.02) rotate(37.82)" style="fill:#11D9C5"></rect><path d="M363.41,390a.47.47,0,0,1-.3-.1l-15-11.66a.53.53,0,0,1-.19-.33.55.55,0,0,1,.1-.37l7.66-9.86a.51.51,0,0,1,.71-.09l15,11.65a.53.53,0,0,1,.19.33.52.52,0,0,1-.1.37l-7.66,9.87A.5.5,0,0,1,363.41,390ZM349.1,377.78l14.22,11,7.05-9.07L356.15,368.7Z" style="fill:#263238"></path><path d="M371.07,380.16h0l-11.33-.9a.51.51,0,0,1-.44-.34l-3.67-10.76a.5.5,0,0,1,.94-.32l3.57,10.45,11,.87a.5.5,0,0,1,0,1Z" style="fill:#263238"></path><polygon points="347.76 403.67 363.36 400.12 356.22 396.75 340.62 400.31 347.76 403.67" style="fill:#11D9C5"></polygon><path d="M347.76,404.17a.49.49,0,0,1-.21,0l-7.14-3.36a.51.51,0,0,1-.28-.51.48.48,0,0,1,.38-.43l15.6-3.56a.47.47,0,0,1,.33,0l7.13,3.36a.52.52,0,0,1,.29.51.51.51,0,0,1-.39.43l-15.6,3.56Zm-5.61-3.69,5.67,2.67,14-3.2-5.66-2.67Z" style="fill:#263238"></path><path d="M340.62,400.81a.5.5,0,1,1,0-1l11.19-.09,4.1-3.35a.49.49,0,0,1,.7.07.5.5,0,0,1-.07.7l-4.23,3.46a.52.52,0,0,1-.32.11l-11.36.1Z" style="fill:#263238"></path><rect x="370.77" y="395.95" width="19.34" height="7.13" transform="translate(39.52 -34.21) rotate(5.43)" style="fill:#11D9C5"></rect><path d="M389.73,404.48h-.05l-19.25-1.83a.51.51,0,0,1-.45-.55l.68-7.1a.48.48,0,0,1,.18-.34.52.52,0,0,1,.36-.11l19.25,1.83a.49.49,0,0,1,.45.54l-.67,7.11a.57.57,0,0,1-.18.34A.54.54,0,0,1,389.73,404.48ZM371,401.7l18.26,1.73.58-6.1-18.26-1.74Z" style="fill:#263238"></path><path d="M380.44,400a.44.44,0,0,1-.22-.05l-9.28-4.46a.5.5,0,1,1,.43-.9l9.12,4.38,9.79-2.59a.5.5,0,1,1,.25,1l-10,2.64Z" style="fill:#263238"></path><rect x="333.08" y="349.23" width="19.01" height="9.7" transform="translate(199.65 -117.42) rotate(27.19)" style="fill:#11D9C5"></rect><path d="M348.82,363.23a.68.68,0,0,1-.23-.05l-16.9-8.69a.5.5,0,0,1-.22-.67l4.43-8.63a.5.5,0,0,1,.68-.21l16.9,8.68a.51.51,0,0,1,.25.29.5.5,0,0,1,0,.38L349.27,363A.51.51,0,0,1,348.82,363.23Zm-16.23-9.4,16,8.23,4-7.74-16-8.23Z" style="fill:#263238"></path><path d="M353.26,354.6h0l-10.67,0a.49.49,0,0,1-.4-.21l-6.24-8.66a.5.5,0,0,1,.12-.7.49.49,0,0,1,.69.12l6.09,8.45,10.42,0a.52.52,0,0,1,.5.51A.51.51,0,0,1,353.26,354.6Z" style="fill:#263238"></path><polygon points="347.32 404.68 364.22 407.52 369.93 403.88 353.02 401.04 347.32 404.68" style="fill:#11D9C5"></polygon><path d="M364.22,408h-.08l-16.91-2.85a.5.5,0,0,1-.18-.91l5.71-3.64a.47.47,0,0,1,.35-.08l16.9,2.85a.49.49,0,0,1,.41.39.51.51,0,0,1-.22.53L364.49,408A.5.5,0,0,1,364.22,408Zm-15.54-3.63,15.44,2.6,4.45-2.84-15.44-2.6Z" style="fill:#263238"></path><path d="M358.62,404.78a.47.47,0,0,1-.25-.07l-5.6-3.24a.5.5,0,0,1-.18-.68.51.51,0,0,1,.69-.19l5.47,3.18,11.16-.4a.52.52,0,0,1,.52.49.49.49,0,0,1-.48.51l-11.31.4Z" style="fill:#263238"></path><polygon points="432.87 405.5 449.78 408.35 455.48 404.7 438.58 401.86 432.87 405.5" style="fill:#11D9C5"></polygon><path d="M449.78,408.84h-.09L432.79,406a.49.49,0,0,1-.41-.39.51.51,0,0,1,.22-.52l5.71-3.64a.48.48,0,0,1,.35-.08l16.91,2.85a.5.5,0,0,1,.4.39.49.49,0,0,1-.22.53L450,408.77A.48.48,0,0,1,449.78,408.84Zm-15.55-3.62,15.44,2.6,4.45-2.84-15.44-2.6Z" style="fill:#263238"></path><path d="M444.18,405.6a.43.43,0,0,1-.25-.07l-5.6-3.24a.51.51,0,0,1-.19-.68.52.52,0,0,1,.69-.19l5.47,3.18,11.17-.4a.51.51,0,0,1,.51.49.49.49,0,0,1-.48.51l-11.31.4Z" style="fill:#263238"></path></g><g id="freepik--Character--inject-17"><path d="M232.93,161.26s-3.16,3.31-6.79.94-7.09-8.52-14.83-7.1-10.88,6.63-10.88,10.26,1.89,6.78-.63,7.57-7.57-2.52-12.31.79-6.78,9.94-4.57,16.09,6,8,15.3,9.31,20.67-6.63,24.3-11.05.47-6.78,2.68-11.67,8.52-6.63,9.46-7.26S238.13,160.94,232.93,161.26Z" style="fill:#263238"></path><path d="M200.24,199.75a14.48,14.48,0,0,1-2.09-.14c-8.9-1.2-13.28-2.88-15.7-9.63-2.25-6.28-.3-13.13,4.76-16.67,3.22-2.26,6.52-1.62,9.17-1.1a7.61,7.61,0,0,0,3.27.24c1.16-.36,1.11-1.28.68-3.62a19.23,19.23,0,0,1-.4-3.47c0-3.49,3-9.23,11.29-10.75,6-1.1,9.58,2.21,12.45,4.87a22.19,22.19,0,0,0,2.75,2.3c3.24,2.12,6-.75,6.15-.87a.45.45,0,0,1,.33-.15,3.06,3.06,0,0,1,3.47,2.08c.77,2.3-.51,6.1-1.43,6.72a7.92,7.92,0,0,1-1.17.55c-2.08.89-6.42,2.73-8.12,6.5a10.15,10.15,0,0,0-.79,5.18,8.19,8.19,0,0,1-2,6.6C219.32,192.75,209.12,199.75,200.24,199.75Zm-7.79-27a7.87,7.87,0,0,0-4.67,1.41c-4.69,3.28-6.49,9.66-4.39,15.51,2,5.68,5.38,7.69,14.9,9,8.93,1.21,20.1-6.31,23.84-10.86a7.29,7.29,0,0,0,1.73-5.92,11.18,11.18,0,0,1,.88-5.65c1.86-4.12,6.44-6.06,8.64-7,.46-.2.86-.37,1-.46.44-.34,1.75-3.66,1-5.66a2.07,2.07,0,0,0-2.25-1.32c-.72.65-3.81,3.13-7.27.87a22.3,22.3,0,0,1-2.88-2.41c-2.84-2.64-6.06-5.63-11.58-4.62-7.69,1.42-10.48,6.62-10.48,9.77a17.65,17.65,0,0,0,.39,3.29c.38,2.11.74,4.1-1.37,4.76a8.15,8.15,0,0,1-3.76-.22A19.7,19.7,0,0,0,192.45,172.72Z" style="fill:#263238"></path><path d="M183.46,188.25a.5.5,0,0,1-.5-.45,14.84,14.84,0,0,1,0-2.9.5.5,0,0,1,.54-.45.5.5,0,0,1,.45.55,15.58,15.58,0,0,0,0,2.69.5.5,0,0,1-.44.55Z" style="fill:#fff"></path><path d="M184.67,181.45a.52.52,0,0,1-.27-.07.51.51,0,0,1-.16-.69,5,5,0,0,1,4.16-2.46,31.51,31.51,0,0,1,7.29,1c4.82,1,9.8,2,12.25-.79,1.63-1.88.58-4.68-.54-7.64-1.35-3.61-2.89-7.7,1.66-9.59,7.67-3.2,15.13,3.53,15.45,3.82a.51.51,0,0,1,0,.71.5.5,0,0,1-.71,0c-.07-.07-7.32-6.58-14.39-3.64-3.4,1.42-2.69,4.09-1.1,8.32,1.16,3.1,2.37,6.32.36,8.64-2.84,3.27-8.11,2.18-13.21,1.12a30.45,30.45,0,0,0-7-1,4,4,0,0,0-3.36,2A.48.48,0,0,1,184.67,181.45Z" style="fill:#fff"></path><path d="M212.05,184.52a.52.52,0,0,1-.43-.24.51.51,0,0,1,.16-.69c2.13-1.33,2.58-1.93-.19-8.07-.86-1.92-.91-3.49-.15-4.67,1.53-2.36,5.93-2.56,9.93-2.56a21.53,21.53,0,0,0,7.88-1.2.49.49,0,0,1,.66.25.5.5,0,0,1-.25.66,22,22,0,0,1-8.29,1.29c-2.7,0-7.73,0-9.09,2.11-.57.87-.49,2.12.22,3.71,2.76,6.11,2.73,7.51-.19,9.33A.5.5,0,0,1,212.05,184.52Z" style="fill:#fff"></path><path d="M249.91,214.34c-1.51,5.85-11,15.17-14.3,18.21s-8.89,9.54-8.89,9.54,2.6,10.4,2.6,17.77,3.47,44.45,2.38,54.85.44,21.11.44,34.12-3.3,42.84-3.3,42.84h-6.29s-1.47-17.13-3.85-29.27-2.6-28.18-4.34-31.65-9.54-54.84-9.54-54.84-8.24,47-8.67,49.21-.87,17.34-.87,25.14-4.55,41.41-4.55,41.41h-6.29s-3.9-26.45-4.55-37.07-.21-20.16-.21-27.53-2.82-52,1.51-66.34,13.66-19.51,15.18-24.28.21-32.73,1.73-38.59,5.86-12.79,12.36-12.79,21.89,1.74,21.89,1.74,11.71,4.33,16.48,8.23,4.55,10.84,4.55,10.84" style="fill:#263238"></path><path d="M228.84,392.17h-6.29a.49.49,0,0,1-.49-.46c0-.17-1.5-17.24-3.85-29.21-1.16-5.89-1.8-12.6-2.36-18.52s-1.08-11.29-1.94-13c-1.52-3.05-7.41-40.83-9.12-52-1.84,10.49-7.78,44.37-8.15,46.22-.43,2.17-.86,17.43-.86,25.05s-4.37,40.1-4.55,41.48a.51.51,0,0,1-.5.43h-6.29a.5.5,0,0,1-.49-.43c0-.26-3.91-26.59-4.56-37.11-.47-7.8-.37-14.92-.28-21.21,0-2.26.07-4.38.07-6.35,0-1.41-.11-4.26-.24-7.87-.57-15.24-1.75-47,1.77-58.61,2.8-9.22,7.63-14.7,11.16-18.69,2-2.22,3.5-4,4-5.6.74-2.32.79-10.68.84-18.77.06-8.26.11-16.81.89-19.79,1.7-6.56,6.33-13.17,12.84-13.17s21.8,1.72,21.95,1.74a.27.27,0,0,1,.12,0c.48.18,11.84,4.41,16.62,8.32s4.74,11,4.73,11.24a.48.48,0,0,1-.51.48.51.51,0,0,1-.49-.51c0-.07.15-6.74-4.37-10.44s-15.39-7.8-16.27-8.13c-1.07-.12-15.59-1.73-21.78-1.73-6,0-10.27,6.24-11.87,12.42-.75,2.86-.8,11.34-.86,19.55,0,8.54-.1,16.6-.89,19.06-.58,1.83-2.19,3.65-4.22,6-3.47,3.93-8.22,9.31-11,18.32-3.48,11.48-2.3,43.09-1.74,58.29.14,3.76.25,6.47.25,7.9,0,2,0,4.1-.07,6.37-.09,6.27-.19,13.37.28,21.13.6,9.74,4,33.15,4.49,36.6h5.41c.54-4,4.49-33.7,4.49-40.91,0-7.66.44-23,.88-25.24s8.59-48.73,8.67-49.2a.52.52,0,0,1,.5-.41.5.5,0,0,1,.49.42c2.69,17.75,8.14,52,9.49,54.7.94,1.88,1.42,6.94,2,13.35.56,5.9,1.2,12.59,2.35,18.43,2.14,10.92,3.57,26.05,3.82,28.86h5.38c.41-3.77,3.25-30.38,3.25-42.34,0-5-.23-9.66-.44-14.14-.34-7-.66-13.61,0-20,.7-6.76-.56-25.27-1.48-38.78-.49-7.22-.91-13.45-.91-16,0-7.22-2.56-17.55-2.59-17.65a.49.49,0,0,1,.11-.45c.06-.07,5.69-6.56,8.93-9.58,2.94-2.74,12.65-12.15,14.16-18a.5.5,0,1,1,1,.25c-1.58,6.08-11.46,15.66-14.45,18.45s-7.72,8.21-8.68,9.31c.39,1.65,2.55,10.94,2.55,17.64,0,2.54.42,8.75.91,15.95.92,13.55,2.19,32.1,1.47,38.95-.66,6.35-.34,12.92,0,19.88.21,4.5.44,9.15.44,14.19,0,12.88-3.27,42.6-3.3,42.9A.5.5,0,0,1,228.84,392.17Z" style="fill:#263238"></path><path d="M208.79,279.28a.49.49,0,0,1-.43-.24.51.51,0,0,1,.18-.69l13.88-8.2a.5.5,0,0,1,.51.86l-13.88,8.2A.48.48,0,0,1,208.79,279.28Z" style="fill:#fff"></path><path d="M248.83,195c-4.77-3.9-16.48-8.23-16.48-8.23s-15.39-1.74-21.89-1.74S199.62,192,198.1,197.86s-.21,33.82-1.73,38.59c-.59,1.84-2.34,3.75-4.52,6.22,5.85,4.51,17.09,10.2,37,10.86a112.93,112.93,0,0,0-2.14-11.44s5.63-6.51,8.89-9.54,12.79-12.36,14.3-18.21l3.47-8.46S253.6,199,248.83,195Z" style="fill:#fff"></path><path d="M228.86,254h0c-19.93-.66-31.28-6.32-37.29-11a.49.49,0,0,1-.19-.35.49.49,0,0,1,.12-.38l.38-.43c2-2.22,3.51-4,4-5.61.74-2.32.79-10.68.84-18.77.06-8.26.11-16.81.89-19.79,1.7-6.56,6.33-13.17,12.84-13.17s21.8,1.72,21.95,1.74a.27.27,0,0,1,.12,0c.48.18,11.84,4.41,16.62,8.32h0c4.9,4,4.74,11,4.73,11.24a.47.47,0,0,1,0,.17l-3.47,8.46c-1.56,6-11.44,15.59-14.43,18.38s-7.72,8.21-8.68,9.31c.27,1.16,1.43,6.12,2.08,11.25a.48.48,0,0,1-.12.4A.52.52,0,0,1,228.86,254ZM192.58,242.6c5.94,4.44,16.86,9.69,35.7,10.41-.75-5.56-2-10.75-2.05-10.8a.49.49,0,0,1,.11-.45c.06-.07,5.69-6.56,8.93-9.58,2.94-2.74,12.65-12.15,14.16-18l3.45-8.43c0-.79-.13-6.88-4.37-10.35h0c-4.48-3.67-15.39-7.8-16.27-8.13-1.07-.12-15.59-1.73-21.78-1.73-6,0-10.27,6.24-11.87,12.42-.75,2.86-.8,11.34-.86,19.55,0,8.54-.1,16.6-.89,19.06-.58,1.84-2.19,3.66-4.23,6Z" style="fill:#263238"></path><path d="M240.33,206.93h0l-7.82-.39A.49.49,0,0,1,232,206a.5.5,0,0,1,.52-.48l7.82.4a.49.49,0,0,1,.47.52A.49.49,0,0,1,240.33,206.93Z" style="fill:#263238"></path><path d="M225.48,203.42a.56.56,0,0,1-.27-.08l-5.47-3.52a.5.5,0,1,1,.54-.84l5.47,3.52a.5.5,0,0,1,.15.69A.48.48,0,0,1,225.48,203.42Z" style="fill:#263238"></path><path d="M190.41,244.34c16.73,16.33,32.29,14.27,38.77,12.35a104.28,104.28,0,0,0-2.46-14.6s5.63-6.51,8.89-9.54,12.79-12.36,14.3-18.21l3.47-8.46a16.55,16.55,0,0,0-1.83-7.51c-3.23,7.88-10.08,18.59-23.06,15.94-16.58-3.4-17.71-22.7-17.61-29.24h-.42c-6.5,0-10.84,6.94-12.36,12.79s-.21,33.82-1.73,38.59C195.66,238.68,193.23,241,190.41,244.34Z" style="fill:#fff"></path><path d="M220.16,258.45c-7.83,0-18.73-2.66-30.1-13.75a.51.51,0,0,1,0-.69c.63-.74,1.24-1.43,1.82-2.08,2-2.23,3.52-4,4-5.63.74-2.32.79-10.68.84-18.77.06-8.26.11-16.81.89-19.79,1.7-6.56,6.33-13.17,12.84-13.17h.34a.62.62,0,0,1,.39.16.56.56,0,0,1,.19.35c-.09,5.9.88,25.39,17.21,28.74,12.27,2.5,19-7.12,22.49-15.64a.51.51,0,0,1,.91-.05,16.73,16.73,0,0,1,1.89,7.77.47.47,0,0,1,0,.17l-3.47,8.46c-1.56,6-11.44,15.59-14.43,18.38s-7.72,8.21-8.68,9.31a105,105,0,0,1,2.41,14.43.51.51,0,0,1-.35.52A32.81,32.81,0,0,1,220.16,258.45ZM191.1,244.31c16.24,15.62,31.38,13.74,37.55,12a104.28,104.28,0,0,0-2.42-14.11.49.49,0,0,1,.11-.45c.06-.07,5.69-6.56,8.93-9.58,2.94-2.74,12.65-12.15,14.16-18l3.45-8.43a16.32,16.32,0,0,0-1.3-6.21c-3.19,7.29-10.18,17.89-23.19,15.23-16.64-3.41-18-22.6-18-29.23-5.93.06-10.19,6.27-11.78,12.42-.75,2.86-.8,11.34-.86,19.55,0,8.54-.1,16.6-.89,19.06-.58,1.84-2.2,3.67-4.24,6C192.12,243.13,191.62,243.7,191.1,244.31Z" style="fill:#263238"></path><path d="M220.18,232.65a26.75,26.75,0,0,1-3.57-.23.5.5,0,0,1,.13-1c6.31.86,13.59-1.14,13.67-1.17a.5.5,0,0,1,.27,1A43.55,43.55,0,0,1,220.18,232.65Z" style="fill:#263238"></path><path d="M221.57,185.71s-3,6.94-2,12.46a81.05,81.05,0,0,0,2,9.15A19.91,19.91,0,0,0,211,217.1a161.23,161.23,0,0,0-8.52,24.77c-2.68,9.78-10.73,15-14.83,15.93s-5.36.63-5.52-.31.63-5.84,3.63-9.31,9.15-9.15,9.94-12.78.79-25.87.79-25.87a27.32,27.32,0,0,1,1.73-16.41c3.79-8,8.2-8.2,11.36-8.52S221.57,185.71,221.57,185.71Z" style="fill:#11D9C5"></path><path d="M183.88,258.88a3,3,0,0,1-1.65-.37,1.33,1.33,0,0,1-.59-.94c-.18-1.05.65-6.14,3.74-9.72.72-.84,1.63-1.8,2.59-2.83,3-3.16,6.67-7.1,7.24-9.73.75-3.44.77-24.43.78-25.7a27.48,27.48,0,0,1,1.78-16.68c3.78-8,8.2-8.46,11.44-8.77l.32,0c3.19-.32,11.76,1,12.12,1.1a.53.53,0,0,1,.36.26.52.52,0,0,1,0,.44c0,.06-2.93,6.87-2,12.18a82.08,82.08,0,0,0,2,9.08.5.5,0,0,1-.32.62,19.66,19.66,0,0,0-10.28,9.52c-3,6.61-5.56,14-8.49,24.69-2.72,9.94-10.77,15.27-15.2,16.29A18.52,18.52,0,0,1,183.88,258.88Zm26.81-73.82c-.4,0-.76,0-1.06,0l-.33,0c-3.16.31-7.09.69-10.63,8.2a27,27,0,0,0-1.7,16.08.5.5,0,0,1,0,.12c0,.91,0,22.34-.8,26-.63,2.89-4.28,6.77-7.49,10.2-.95,1-1.85,2-2.56,2.8a15.33,15.33,0,0,0-3.52,8.9.34.34,0,0,0,.17.26c.37.25,1.5.4,4.75-.35,3.55-.82,11.75-5.71,14.46-15.58,2.95-10.75,5.5-18.18,8.54-24.85A20.24,20.24,0,0,1,221,207a89.37,89.37,0,0,1-1.93-8.77c-.81-4.71,1.13-10.32,1.84-12.15A89.28,89.28,0,0,0,210.69,185.06Z" style="fill:#263238"></path><path d="M199.56,208.23a.49.49,0,0,1-.49-.45.5.5,0,0,1,.45-.55l6.49-.58a.48.48,0,0,1,.54.45.49.49,0,0,1-.45.54l-6.49.59Z" style="fill:#263238"></path><path d="M244.71,192.23s-1.08,8.45-3,13-3,5-3,5,2.39,6.72,1.3,12.14a31.7,31.7,0,0,1-4.33,10.19s-5.86,6.07-6.94,7.37-1.95,2.17-1.95,2.17,1.52,8.45,1.95,12.35a38.1,38.1,0,0,1,0,7.59s4.12-.22,5.2-5.2-2-9.54,1.74-16.48a103.86,103.86,0,0,0,5.85-13.22s0,11.27-.22,14.09-2.38,4.34-2.16,6.07,2.81,5.85,5,8.24,19.3,22.76,19.3,22.76,1.51,5.2,3.9,8,7.59,6.94,7.8,2.17-.21-8-3-11.06-4.56-5-4.56-5l-12.14-22.77a22.7,22.7,0,0,1,0-4.11c.22-2.17-1.08-5.86-1.08-5.86s3.9-25.58,3-31.87S250.56,194.83,244.71,192.23Z" style="fill:#fff"></path><path d="M273.5,291.16c-2.27,0-5.48-3.17-6.62-4.53-2.27-2.68-3.74-7.33-4-8.1-1.18-1.39-17.15-20.39-19.22-22.67s-4.88-6.62-5.11-8.51a4.67,4.67,0,0,1,.92-2.84,7.62,7.62,0,0,0,1.24-3.33c.15-1.9.2-7.76.21-11.28a107,107,0,0,1-4.9,10.69c-2.24,4.2-1.93,7.47-1.63,10.62a18,18,0,0,1-.06,5.72c-1.15,5.3-5.62,5.6-5.66,5.6a.48.48,0,0,1-.4-.16.51.51,0,0,1-.13-.4,37.2,37.2,0,0,0,0-7.47c-.42-3.84-1.93-12.24-1.94-12.32a.52.52,0,0,1,.13-.45s.87-.87,1.93-2.13,6.72-7.15,7-7.4h0a31.93,31.93,0,0,0,4.2-9.94c1.05-5.22-1.26-11.81-1.28-11.87a.51.51,0,0,1,.29-.64h0s1-.62,2.76-4.71c1.9-4.44,3-12.79,3-12.88a.51.51,0,0,1,.25-.37.46.46,0,0,1,.44,0c6.37,2.83,12,9.86,12.87,16s-2.69,29.74-3,31.89c.23.67,1.28,3.89,1.07,6a22,22,0,0,0,0,3.92l12.07,22.62c.27.31,1.95,2.19,4.5,4.93,2.94,3.17,3.39,6.59,3.17,11.42-.06,1.4-.54,2.26-1.41,2.56A2.05,2.05,0,0,1,273.5,291.16Zm-32-64.53h.08a.5.5,0,0,1,.42.49c0,.46,0,11.32-.22,14.13a8.65,8.65,0,0,1-1.37,3.75,4,4,0,0,0-.8,2.22c.19,1.5,2.64,5.52,4.86,8S263,277.14,263.74,278a.38.38,0,0,1,.09.18c0,.05,1.52,5.14,3.81,7.84,2,2.34,4.95,4.54,6.19,4.12.44-.15.69-.71.73-1.65.21-4.68-.18-7.77-2.9-10.7s-4.54-5-4.56-5a.36.36,0,0,1-.07-.1l-12.14-22.76a.41.41,0,0,1,0-.18,22.24,22.24,0,0,1,0-4.22c.2-2-1.05-5.61-1.06-5.64a.4.4,0,0,1,0-.24c0-.26,3.88-25.58,3-31.73C256,202.27,251,195.83,245.11,193c-.3,2.11-1.32,8.6-3,12.46-1.39,3.24-2.38,4.49-2.91,5,.48,1.47,2.17,7.21,1.2,12.06A32.08,32.08,0,0,1,236,232.83c-.11.13-5.91,6.14-7,7.41-.8,1-1.48,1.69-1.79,2,.25,1.44,1.52,8.64,1.91,12.14a38.51,38.51,0,0,1,.06,7c1.1-.26,3.4-1.23,4.15-4.71a17.2,17.2,0,0,0,.05-5.41c-.3-3.15-.64-6.72,1.74-11.19A105.14,105.14,0,0,0,241,227,.49.49,0,0,1,241.46,226.63Z" style="fill:#263238"></path><path d="M272.54,284.85a31.13,31.13,0,0,1,.77,6.62c0,1.88.66,2.76,1.44,2.1s.55-4.2.66-5.19-1.33-7.18-1.33-7.18" style="fill:#fff"></path><path d="M274.26,294.29a1,1,0,0,1-.43-.1c-.66-.3-1-1.27-1-2.72a31.31,31.31,0,0,0-.72-6.4.5.5,0,0,1,.23-.67.51.51,0,0,1,.67.22,30.44,30.44,0,0,1,.82,6.85c0,1.4.37,1.8.44,1.82h0a.34.34,0,0,0,.17-.1c.4-.34.43-2.63.45-3.61,0-.53,0-1,0-1.26a53.26,53.26,0,0,0-1.31-7,.5.5,0,1,1,1-.23c.24,1.05,1.45,6.32,1.34,7.34a11.47,11.47,0,0,0,0,1.16c0,2.11-.11,3.77-.8,4.36A1.23,1.23,0,0,1,274.26,294.29Z" style="fill:#263238"></path><path d="M255.33,245.56c.22-2.17-1.08-5.86-1.08-5.86s3.9-25.58,3-31.87-6.73-13-12.58-15.6c0,0-1.08,8.45-3,13s-3,5-3,5,2.39,6.72,1.3,12.14a31.7,31.7,0,0,1-4.33,10.19s-5.86,6.07-6.94,7.37-1.95,2.17-1.95,2.17,1.52,8.45,1.95,12.35a38.1,38.1,0,0,1,0,7.59s4.12-.22,5.2-5.2-2-9.54,1.74-16.48a103.86,103.86,0,0,0,5.85-13.22s0,11.27-.22,14.09-2.38,4.34-2.16,6.07c.16,1.35,1.78,4.14,3.51,6.44,1-1.72,4.83-7.18,12.74-4.06A22.7,22.7,0,0,1,255.33,245.56Z" style="fill:#11D9C5"></path><path d="M228.67,262.53a.52.52,0,0,1-.37-.16.51.51,0,0,1-.13-.4,37.2,37.2,0,0,0,0-7.47c-.42-3.84-1.93-12.24-1.94-12.32a.52.52,0,0,1,.13-.45s.87-.87,1.93-2.13,6.72-7.15,7-7.4h0a31.93,31.93,0,0,0,4.2-9.94c1.05-5.22-1.26-11.81-1.28-11.87a.51.51,0,0,1,.29-.64h0s1-.62,2.76-4.71c1.9-4.44,3-12.79,3-12.88a.51.51,0,0,1,.25-.37.46.46,0,0,1,.44,0c6.37,2.83,12,9.86,12.87,16s-2.69,29.74-3,31.89c.23.67,1.28,3.89,1.07,6a21.75,21.75,0,0,0,0,4,.49.49,0,0,1-.19.45.51.51,0,0,1-.49.07c-7.52-3-11.18,2.19-12.13,3.84a.5.5,0,0,1-.4.25.47.47,0,0,1-.43-.2c-1.6-2.13-3.42-5.13-3.61-6.68a4.67,4.67,0,0,1,.92-2.84,7.62,7.62,0,0,0,1.24-3.33c.15-1.9.2-7.76.21-11.28a107,107,0,0,1-4.9,10.69c-2.24,4.2-1.93,7.47-1.63,10.62a18,18,0,0,1-.06,5.72c-1.15,5.3-5.62,5.6-5.66,5.6Zm-1.41-20.28c.25,1.44,1.52,8.64,1.91,12.14a38.51,38.51,0,0,1,.06,7c1.1-.26,3.4-1.23,4.15-4.71a17.2,17.2,0,0,0,.05-5.41c-.3-3.15-.64-6.72,1.74-11.19A104.43,104.43,0,0,0,241,227a.5.5,0,0,1,1,.16c0,.46,0,11.32-.22,14.13a8.65,8.65,0,0,1-1.37,3.75,4,4,0,0,0-.8,2.22c.13,1.06,1.36,3.35,3,5.61,1.44-2.15,5.24-6.29,12.23-3.9a21.49,21.49,0,0,1,.06-3.43c.2-2-1.05-5.61-1.06-5.64a.4.4,0,0,1,0-.24c0-.26,3.88-25.58,3-31.73C256,202.27,251,195.83,245.11,193c-.3,2.11-1.32,8.6-3,12.46-1.39,3.24-2.38,4.49-2.91,5,.48,1.47,2.17,7.21,1.2,12.06A32.08,32.08,0,0,1,236,232.83c-.11.13-5.91,6.14-7,7.41C228.25,241.2,227.57,241.93,227.26,242.25Z" style="fill:#263238"></path><path d="M241.46,227.63l-.12,0a.49.49,0,0,1-.38-.53l1.18-12a.5.5,0,0,1,1,.1l-.82,8.37,4.57-11.85a.51.51,0,0,1,.65-.28.5.5,0,0,1,.29.64l-5.9,15.27A.52.52,0,0,1,241.46,227.63Z" style="fill:#263238"></path><path d="M243.23,243.64a.5.5,0,0,1-.33-.88c.14-.12,3.37-2.85,11.31-3.56a.52.52,0,0,1,.54.46.5.5,0,0,1-.46.54c-7.57.67-10.7,3.29-10.73,3.32A.52.52,0,0,1,243.23,243.64Z" style="fill:#263238"></path><path d="M254.15,238.92a.37.37,0,0,1-.15,0c-5.29-1.67-8.13-.06-8.16,0a.5.5,0,0,1-.51-.86c.13-.08,3.21-1.87,9-.05a.49.49,0,0,1,.32.63A.5.5,0,0,1,254.15,238.92Z" style="fill:#263238"></path><path d="M225,193.31s5.42-5.85,7.16-10.62,3.9-13.44,3.9-13.44,5.85,3,7.59,8.45-3.9,15.18-4.34,19.73" style="fill:#fff"></path><path d="M239.29,197.93h0a.51.51,0,0,1-.45-.55,32.73,32.73,0,0,1,2-6.7c1.61-4.47,3.44-9.54,2.39-12.83-1.34-4.2-5.32-6.95-6.79-7.84-.54,2.1-2.3,8.86-3.75,12.85-1.75,4.81-7,10.55-7.26,10.79a.51.51,0,0,1-.71,0,.5.5,0,0,1,0-.71c0-.06,5.37-5.84,7-10.45s3.86-13.31,3.89-13.39a.47.47,0,0,1,.27-.34.52.52,0,0,1,.44,0c.25.13,6.06,3.2,7.83,8.75,1.16,3.61-.73,8.85-2.4,13.47a31.57,31.57,0,0,0-1.91,6.46A.5.5,0,0,1,239.29,197.93Z" style="fill:#263238"></path><path d="M235.23,175.69s-5.2-3-5.2-12.14,9.1-15,18.42-13.22c9,1.67,15.18,15,12.8,23s-12.14,20.81-15,22.11S235,189.35,235,183.28s.65-4.12.65-4.12" style="fill:#fff"></path><path d="M245.53,196.07a6.87,6.87,0,0,1-3.43-1.28c-3.73-2.38-7.59-7.34-7.59-11.51,0-4.45.32-4.83.84-4.91.34-.05.64.18.79.63a.5.5,0,0,1-.32.63.4.4,0,0,1-.15,0,26.17,26.17,0,0,0-.16,3.62c0,3.82,3.63,8.43,7.13,10.67,1.48,1,2.76,1.33,3.44,1,2.68-1.24,12.33-13.88,14.69-21.81,1.23-4.15.11-10-2.86-14.84-2.55-4.17-5.94-6.83-9.55-7.5A16.31,16.31,0,0,0,235.05,154a12.23,12.23,0,0,0-4.52,9.52c0,8.68,4.9,11.68,4.95,11.71a.5.5,0,0,1-.5.86c-.22-.13-5.45-3.28-5.45-12.57a13.17,13.17,0,0,1,4.89-10.29,17.26,17.26,0,0,1,14.13-3.42c3.89.72,7.51,3.55,10.21,8,3.12,5.09,4.28,11.23,3,15.65-2.47,8.32-12.34,21.09-15.22,22.42A2.3,2.3,0,0,1,245.53,196.07Z" style="fill:#263238"></path><path d="M251.09,178.9c-.37.91-1,1.51-1.44,1.34s-.48-1.05-.1-2,1-1.52,1.44-1.34S251.46,178,251.09,178.9Z" style="fill:#263238"></path><path d="M257.11,180.37c-.37.92-1,1.52-1.44,1.34s-.48-1.05-.1-2,1-1.51,1.44-1.34S257.48,179.46,257.11,180.37Z" style="fill:#263238"></path><path d="M250.44,184.66s2.14,1.91,3.81,1.67,0-1.91-.24-3.57,1.91-4.53,1.91-4.53" style="fill:#fff"></path><path d="M254,186.85c-1.79,0-3.77-1.74-3.85-1.81a.5.5,0,1,1,.66-.75c.55.49,2.23,1.72,3.41,1.55a.61.61,0,0,0,.3-.1,3.14,3.14,0,0,0-.36-1.11,7.06,7.06,0,0,1-.6-1.8c-.26-1.82,1.77-4.59,2-4.9a.5.5,0,0,1,.7-.1.51.51,0,0,1,.1.7c-.56.75-2,3-1.81,4.15a6.22,6.22,0,0,0,.52,1.54c.34.78.64,1.45.32,2a1.33,1.33,0,0,1-1,.6Z" style="fill:#263238"></path><path d="M248.53,188.5h-.1a4.71,4.71,0,0,1-3.47-2.7.5.5,0,0,1,.3-.64.5.5,0,0,1,.64.29,3.69,3.69,0,0,0,2.73,2.07.49.49,0,0,1,.39.59A.51.51,0,0,1,248.53,188.5Z" style="fill:#263238"></path><path d="M250.44,173.7s2.86-.72,3.57,1.67" style="fill:#fff"></path><path d="M254,175.87a.51.51,0,0,1-.48-.36c-.56-1.89-2.87-1.35-3-1.33a.5.5,0,0,1-.61-.36.51.51,0,0,1,.37-.61c1.15-.28,3.5-.23,4.17,2a.51.51,0,0,1-.33.63Z" style="fill:#263238"></path><path d="M257.11,176.8a1.31,1.31,0,0,1,1.91.71" style="fill:#fff"></path><path d="M259,178a.5.5,0,0,1-.45-.27,1.06,1.06,0,0,0-.58-.6.89.89,0,0,0-.62.09.51.51,0,0,1-.69-.18.5.5,0,0,1,.17-.68,1.88,1.88,0,0,1,1.41-.19,2,2,0,0,1,1.2,1.11.49.49,0,0,1-.22.67A.44.44,0,0,1,259,178Z" style="fill:#263238"></path><path d="M260.79,163.49c-1.93-6.2-6.55-12.09-12.34-13.16-9.32-1.74-18.42,4.12-18.42,13.22,0,5.41,1.83,8.66,3.32,10.42,1.31.06,6.86.24,9.9-1.1,3.47-1.51,1.3-4.33,3.69-7.8C248.78,162.39,255.51,161.28,260.79,163.49Z" style="fill:#263238"></path><path d="M235.29,174.52c-.85,0-1.54,0-2-.05a.49.49,0,0,1-.36-.17c-1.57-1.86-3.44-5.23-3.44-10.75a13.17,13.17,0,0,1,4.89-10.29,17.26,17.26,0,0,1,14.13-3.42c6.25,1.16,10.89,7.62,12.71,13.5a.48.48,0,0,1-.14.52.49.49,0,0,1-.53.09c-5.13-2.15-11.57-1-13.24,1.4a7.94,7.94,0,0,0-1.28,3.89c-.21,1.6-.4,3.12-2.62,4.09S237.63,174.52,235.29,174.52Zm-1.7-1c1.49.06,6.65.17,9.46-1.06,1.7-.75,1.83-1.77,2-3.31a9,9,0,0,1,1.46-4.32c2-2.87,8.38-3.82,13.45-2.13-1.92-5.32-6.12-10.82-11.62-11.84A16.31,16.31,0,0,0,235.05,154a12.23,12.23,0,0,0-4.52,9.52C230.53,168.6,232.16,171.72,233.59,173.48Z" style="fill:#263238"></path><path d="M252.76,162.45a13.28,13.28,0,0,1-5-1.18,19.61,19.61,0,0,0-7.78-1.62,12.93,12.93,0,0,0-3.82.52.5.5,0,1,1-.3-1,14,14,0,0,1,4.12-.56,20.71,20.71,0,0,1,8.14,1.68,12.34,12.34,0,0,0,4.6,1.12.5.5,0,0,1,0,1Z" style="fill:#fff"></path><path d="M232.25,163.07a.47.47,0,0,1-.17,0,.5.5,0,0,1-.3-.64,4.83,4.83,0,0,1,1.6-1.94.52.52,0,0,1,.71.1.51.51,0,0,1-.1.7,3.79,3.79,0,0,0-1.27,1.49A.51.51,0,0,1,232.25,163.07Z" style="fill:#fff"></path><path d="M245,169a.5.5,0,0,1-.45-.28s-.95-1.75-5-3.49-8.19.86-8.23.89a.5.5,0,1,1-.54-.84c.18-.12,4.62-2.92,9.17-1s5.49,3.88,5.53,4a.52.52,0,0,1-.22.68A.64.64,0,0,1,245,169Z" style="fill:#fff"></path><path d="M255,162s8.1-4.05,11.91-1,1.19,10.25-2.62,12.87-1.19,6.19.48,6.19,1.05,3.17-3.58.24-1-7.62-1-9.53S259.26,162,255,162Z" style="fill:#263238"></path><path d="M264.4,182.11a6.79,6.79,0,0,1-3.5-1.32c-3.78-2.38-2.52-5.86-1.69-8.16a6.88,6.88,0,0,0,.5-1.79c0-1.65-.84-8.32-4.74-8.32a.49.49,0,0,1-.49-.39.52.52,0,0,1,.26-.56c.34-.17,8.44-4.16,12.46-.89a5.86,5.86,0,0,1,2,5,11.82,11.82,0,0,1-4.7,8.65c-1.44,1-2,2.24-1.62,3.5a2.45,2.45,0,0,0,1.82,1.78,1.3,1.3,0,0,1,1.28.82,1.18,1.18,0,0,1-.4,1.3A2,2,0,0,1,264.4,182.11Zm-7.79-20.26c3.36,1.45,4.1,7.27,4.1,9a7.1,7.1,0,0,1-.56,2.13c-.81,2.24-1.82,5,1.28,7,2.13,1.35,3.24,1.27,3.56,1a.16.16,0,0,0,.09-.18c0-.07-.13-.15-.34-.15a3.4,3.4,0,0,1-2.78-2.48c-.25-.8-.55-2.86,2-4.63a10.91,10.91,0,0,0,4.26-7.86,5,5,0,0,0-1.67-4.21C264,159.34,259,160.88,256.61,161.85Z" style="fill:#263238"></path><path d="M260.53,176.13a.5.5,0,0,1-.5-.5,2.9,2.9,0,0,1,1.62-2.46,4.19,4.19,0,0,0,2.11-4.07c0-4.4-6.09-6-6.15-6a.5.5,0,1,1,.25-1c.28.07,6.9,1.84,6.9,7a5.22,5.22,0,0,1-2.53,4.89c-.79.56-1.2.89-1.2,1.64A.5.5,0,0,1,260.53,176.13Z" style="fill:#fff"></path><path d="M237.62,177s-1.31-7.8-3.47-5.85-1.74,5.2-.44,8.24,3.69-.65,3.69-.65" style="fill:#fff"></path><path d="M235,181.08h-.13c-.7-.06-1.26-.56-1.66-1.5-1.68-3.92-1.48-7,.56-8.8a1.39,1.39,0,0,1,1.45-.37c1.78.62,2.69,5.53,2.85,6.51a.5.5,0,1,1-1,.16c-.35-2.12-1.29-5.41-2.19-5.73-.06,0-.19-.06-.45.17-2.14,1.93-1.35,5.24-.31,7.67.17.39.45.86.82.89.67.05,1.63-1.06,2-1.61a.49.49,0,0,1,.69-.15.5.5,0,0,1,.15.69C237.68,179.22,236.43,181.08,235,181.08Z" style="fill:#263238"></path><path d="M184.44,391.67s-3.51,6.75-13.52,12.89c-1,.61-.23,1.14-.23,1.14h20.94s.68-1.14.45-4.1c-.19-2.49-1.35-9.93-1.35-9.93Z" style="fill:#11D9C5"></path><path d="M191.63,406.2H170.69a.52.52,0,0,1-.29-.09,1.16,1.16,0,0,1-.49-.92,1.31,1.31,0,0,1,.75-1.06c9.76-6,13.31-12.62,13.34-12.69a.5.5,0,0,1,.44-.27h6.29a.51.51,0,0,1,.5.42c0,.31,1.16,7.49,1.35,10,.23,3-.45,4.27-.53,4.4A.49.49,0,0,1,191.63,406.2Zm-20.71-1H191.3a8.79,8.79,0,0,0,.28-3.56c-.16-2.11-1-7.86-1.28-9.47h-5.56c-.77,1.34-4.55,7.29-13.56,12.82A1,1,0,0,0,170.92,405.2Z" style="fill:#263238"></path><path d="M173,403.19c-.67.46-1.37.92-2.1,1.37-1,.61-.23,1.14-.23,1.14h20.94a5.88,5.88,0,0,0,.48-2.51Z" style="fill:#263238"></path><path d="M191.63,406.2H170.69a.52.52,0,0,1-.29-.09,1.16,1.16,0,0,1-.49-.92,1.31,1.31,0,0,1,.75-1.06c.73-.44,1.41-.9,2.07-1.35a.5.5,0,0,1,.29-.09h19.09a.48.48,0,0,1,.36.16.46.46,0,0,1,.14.36,6.22,6.22,0,0,1-.55,2.74A.52.52,0,0,1,191.63,406.2Zm-20.71-1h20.37a5.79,5.79,0,0,0,.29-1.51H173.17c-.64.44-1.29.87-2,1.3A1,1,0,0,0,170.92,405.2Z" style="fill:#263238"></path><path d="M228.84,391.67s3.52,6.75,13.53,12.89c1,.61.23,1.14.23,1.14H221.66s-.68-1.14-.46-4.1c.2-2.49,1.35-9.93,1.35-9.93Z" style="fill:#11D9C5"></path><path d="M242.6,406.2H221.66a.5.5,0,0,1-.43-.24c-.08-.13-.76-1.37-.52-4.4.19-2.48,1.3-9.66,1.35-10a.5.5,0,0,1,.49-.42h6.29a.48.48,0,0,1,.44.27c0,.07,3.59,6.7,13.35,12.69a1.35,1.35,0,0,1,.75,1.06,1.16,1.16,0,0,1-.5.92A.47.47,0,0,1,242.6,406.2Zm-20.61-1h20.38a.82.82,0,0,0-.26-.21c-9-5.53-12.79-11.48-13.56-12.82H223c-.24,1.61-1.11,7.36-1.28,9.47A8.94,8.94,0,0,0,222,405.2Z" style="fill:#263238"></path><path d="M240.27,403.19c.67.46,1.36.92,2.1,1.37,1,.61.23,1.14.23,1.14H221.66a6,6,0,0,1-.49-2.51Z" style="fill:#263238"></path><path d="M242.6,406.2H221.66a.5.5,0,0,1-.43-.25,6.3,6.3,0,0,1-.56-2.74.54.54,0,0,1,.14-.36.52.52,0,0,1,.36-.16h19.1a.47.47,0,0,1,.28.09c.67.45,1.35.91,2.08,1.35a1.35,1.35,0,0,1,.75,1.06,1.16,1.16,0,0,1-.5.92A.47.47,0,0,1,242.6,406.2Zm-20.61-1h20.38a.82.82,0,0,0-.26-.21c-.7-.43-1.36-.86-2-1.3H221.7A6.8,6.8,0,0,0,222,405.2Z" style="fill:#263238"></path><path d="M210.46,185.07s-5.3-2-9.08-.78-26.82,23.35-28.72,24-5.83-.79-9.15,1.89-3.31,8.36-2.52,10.89,12.78,3.78,16.57,2.52,4.73-6.31,4.73-6.31L204.85,204" style="fill:#11D9C5"></path><path d="M173.12,224.57c-3.94,0-8.8-.74-11.09-1.91a2.79,2.79,0,0,1-1.52-1.47c-.8-2.57-.84-8.56,2.69-11.42,2.36-1.91,5.06-1.86,7-1.83a7.68,7.68,0,0,0,2.28-.15c.71-.25,5.53-4.56,10.18-8.72,7.6-6.79,16.21-14.48,18.53-15.26,3.91-1.3,9.2.71,9.42.8a.5.5,0,1,1-.36.93c-.05,0-5.18-2-8.75-.78-2.12.71-11.4,9-18.17,15.06-6.17,5.51-9.7,8.64-10.54,8.92a8,8,0,0,1-2.61.2c-1.92,0-4.3-.07-6.38,1.61-3.16,2.55-3.1,8-2.36,10.35.05.15.24.47,1,.87,3.13,1.6,11.77,2.37,14.91,1.33,3.46-1.16,4.39-5.89,4.4-5.93a.46.46,0,0,1,.23-.34l22.56-13.25a.51.51,0,0,1,.69.17.51.51,0,0,1-.18.69l-22.37,13.14c-.24,1-1.43,5.27-5,6.46A15.78,15.78,0,0,1,173.12,224.57Z" style="fill:#263238"></path><path d="M181.27,216.2a.49.49,0,0,1-.48-.38,7.7,7.7,0,0,0-5-5.54.5.5,0,1,1,.28-1,8.7,8.7,0,0,1,5.66,6.26.5.5,0,0,1-.37.6Z" style="fill:#263238"></path><path d="M182.45,216.49a.5.5,0,0,1-.5-.47c-.28-6.12-3.86-8.43-3.89-8.45a.49.49,0,0,1-.16-.69.49.49,0,0,1,.68-.16c.17.1,4.07,2.57,4.37,9.25a.5.5,0,0,1-.48.52Z" style="fill:#263238"></path><path d="M158.46,389.15c-1.56,0-3.61.46-4.91.4l-1.06-.05.67-3.37,1.07.05c6.81,1.94,13.25-4,14.55-8.24s1-21.52.87-32c0-2.59-.07-4.65-.07-5.86,0-19.06.5-82.16,6.89-94.32,6.74-12.84,19.62-19.55,29.94-15.62A48.64,48.64,0,0,1,222.09,240l-2,2a46.64,46.64,0,0,0-14.68-9.22c-9-3.42-20.34,2.72-26.42,14.29-4.84,9.22-6.56,55.85-6.56,93,0,1.2,0,3.25.07,5.82.23,15.83.37,28.45-1,32.88C170,383.68,163.84,389.15,158.46,389.15Z" style="fill:#263238"></path><path d="M200.49,230.16s2.6,3,2.16,4.56S198.32,238,197,237.1s1.73-1.73,2.17-3S198.75,228.65,200.49,230.16Z" style="fill:#fff"></path><path d="M198,237.83a2.21,2.21,0,0,1-1.23-.31,1.06,1.06,0,0,1-.54-.86c0-.61.58-1,1.26-1.54.5-.36,1.12-.81,1.25-1.21a7.41,7.41,0,0,0,.12-1.77c0-1.35,0-2.42.69-2.74s1.12.23,1.3.39l.05.05c.28.33,2.76,3.29,2.27,5-.31,1.09-1.84,2.08-3.21,2.58A6.11,6.11,0,0,1,198,237.83Zm-.76-1.2.09.05a3,3,0,0,0,2.29-.19c1.27-.47,2.41-1.31,2.58-1.91.25-.86-1-2.88-2-4.06a.81.81,0,0,0-.19-.14,8.35,8.35,0,0,0-.11,1.76,7.45,7.45,0,0,1-.17,2.08,4,4,0,0,1-1.61,1.71A4.67,4.67,0,0,0,197.21,236.63Z" style="fill:#263238"></path><path d="M120.25,348.91h28.47a8.17,8.17,0,0,1,8.17,8.17v11.08a0,0,0,0,1,0,0h-44.8a0,0,0,0,1,0,0V357.07A8.17,8.17,0,0,1,120.25,348.91Z" style="fill:#263238"></path><path d="M156.89,368.65h-44.8a.5.5,0,0,1-.5-.5V357.07a8.66,8.66,0,0,1,8.66-8.66h28.47a8.67,8.67,0,0,1,8.67,8.66v11.08A.5.5,0,0,1,156.89,368.65Zm-44.3-1h43.8V357.07a7.67,7.67,0,0,0-7.67-7.66H120.25a7.67,7.67,0,0,0-7.66,7.66Z" style="fill:#263238"></path><path d="M149.5,403.17H119.75a5,5,0,0,1-4.93-4.42l-4.31-39.12h48L154.13,399A4.65,4.65,0,0,1,149.5,403.17Z" style="fill:#11D9C5"></path><path d="M149.5,403.67H119.75a5.46,5.46,0,0,1-5.43-4.86L110,359.69a.52.52,0,0,1,.13-.39.48.48,0,0,1,.37-.17h48a.5.5,0,0,1,.37.17.51.51,0,0,1,.12.39l-4.34,39.4A5.14,5.14,0,0,1,149.5,403.67Zm-38.43-43.54,4.24,38.57a4.46,4.46,0,0,0,4.44,4H149.5a4.15,4.15,0,0,0,4.13-3.69l4.28-38.85Z" style="fill:#263238"></path><rect x="109.25" y="356.48" width="50.17" height="8.52" style="fill:#263238"></rect><path d="M159.41,365.5H109.25a.5.5,0,0,1-.5-.5v-8.52a.5.5,0,0,1,.5-.5h50.16a.5.5,0,0,1,.5.5V365A.5.5,0,0,1,159.41,365.5Zm-49.66-1h49.16V357H109.75Z" style="fill:#263238"></path><circle cx="130.7" cy="393.08" r="12.62" style="fill:#263238"></circle><path d="M130.7,406.2a13.12,13.12,0,1,1,13.12-13.12A13.14,13.14,0,0,1,130.7,406.2Zm0-25.24a12.12,12.12,0,1,0,12.12,12.12A12.13,12.13,0,0,0,130.7,381Z" style="fill:#263238"></path><path d="M200.05,227.56a1.5,1.5,0,0,0-.42-.53,1.26,1.26,0,0,0-1.19-.6l-5.54-1.85s-12.5-5.75-15.46-7.89c-4.57-3.32-10.93-4.64-15.19-.85s-.63,9,2.53,10.41c2.92,1.32,19.26,2.52,22.28,2.82l1.72,2.83c-.22,1.73,1.52,5.42,3,5.63s8.45-1.73,8.88-3.46A11.19,11.19,0,0,0,200.05,227.56Z" style="fill:#fff"></path><path d="M192,238h-.26c-1.85-.27-3.58-4.05-3.47-6l-1.51-2.48-2-.18c-5.71-.49-17.6-1.51-20.14-2.65a8.57,8.57,0,0,1-4.69-6,5.59,5.59,0,0,1,2-5.22c4.55-4.05,11.23-2.51,15.82.81,2.88,2.09,15.24,7.79,15.37,7.85l5.39,1.79a1.85,1.85,0,0,1,1.52.79,2,2,0,0,1,.48.63,11.71,11.71,0,0,1,.69,6.85C200.67,236.27,193.89,238,192,238Zm-23.47-24a8.77,8.77,0,0,0-5.95,2.17,4.65,4.65,0,0,0-1.71,4.33,7.55,7.55,0,0,0,4.11,5.25c2.39,1.08,14.6,2.13,19.82,2.57l2.31.21a.5.5,0,0,1,.38.24l1.72,2.83a.51.51,0,0,1,.07.32c-.2,1.6,1.5,4.92,2.61,5.08,1.52.22,8-1.82,8.33-3.1a10.74,10.74,0,0,0-.61-6.15,1.13,1.13,0,0,0-.3-.38c-.44-.53-.76-.49-.77-.49a.58.58,0,0,1-.26,0l-5.54-1.84c-.56-.26-12.63-5.82-15.59-8A15.28,15.28,0,0,0,168.53,214Z" style="fill:#263238"></path><path d="M193.91,237.68a.5.5,0,0,1-.48-.34l-2.35-6.88a.5.5,0,1,1,.95-.33l2.35,6.89a.51.51,0,0,1-.31.64Z" style="fill:#263238"></path><path d="M196.93,236.51a.49.49,0,0,1-.48-.38l-1.68-6.55a.5.5,0,1,1,1-.25l1.68,6.55a.51.51,0,0,1-.36.61Z" style="fill:#263238"></path><path d="M199.45,235.67a.49.49,0,0,1-.48-.38l-1.68-6.55a.5.5,0,0,1,1-.25l1.68,6.55a.51.51,0,0,1-.36.61Z" style="fill:#263238"></path><path d="M305.41,317.69a1.89,1.89,0,0,1-1.26-.48l-83.68-74.58a1.89,1.89,0,0,1,2.52-2.82l83.68,74.57a1.91,1.91,0,0,1,.16,2.68A1.94,1.94,0,0,1,305.41,317.69Z" style="fill:#fff"></path><path d="M305.41,318.19a2.39,2.39,0,0,1-1.59-.61L220.14,243a2.39,2.39,0,0,1,3.18-3.58L307,314a2.39,2.39,0,0,1-1.59,4.18Zm-83.68-78.36a1.39,1.39,0,0,0-.92,2.43l83.68,74.58a1.43,1.43,0,0,0,2-.12,1.4,1.4,0,0,0-.11-2l-83.68-74.57A1.38,1.38,0,0,0,221.73,239.83Z" style="fill:#263238"></path><path d="M312.75,325.32a3.32,3.32,0,0,1-2.14-.78L296.1,312.23a3.31,3.31,0,1,1,4.28-5.05l14.51,12.3a3.31,3.31,0,0,1-2.14,5.84Z" style="fill:#263238"></path><path d="M312.75,325.82a3.8,3.8,0,0,1-2.46-.9l-14.52-12.31a3.8,3.8,0,0,1-1.33-2.59,3.75,3.75,0,0,1,.89-2.78,3.83,3.83,0,0,1,5.38-.44l14.51,12.3a3.81,3.81,0,0,1-2.47,6.72Zm-14.51-18.93a2.83,2.83,0,0,0-2.15,1,2.81,2.81,0,0,0,.33,4l14.51,12.31a2.92,2.92,0,0,0,4-.33,2.83,2.83,0,0,0-.33-4l-14.51-12.3A2.81,2.81,0,0,0,298.24,306.89Z" style="fill:#263238"></path><path d="M341.23,327.82s-13.74-8.24-17.61-8.55l-25.48,4.08.25,1.45c-.09,2.44,17.52,11.3,20.36,10.67s18.36-3.66,22.4-6A11.89,11.89,0,0,0,341.23,327.82Z" style="fill:#fff"></path><path d="M318.46,336c-3.3,0-15.1-5.79-19.06-9.08-1-.86-1.5-1.51-1.51-2.07l-.25-1.41a.52.52,0,0,1,.09-.38.54.54,0,0,1,.33-.2l25.48-4.08h.12c3.94.31,17.26,8.27,17.83,8.61a.51.51,0,0,1,.24.43c0,1.9-.08,1.94-.33,2.09-3.58,2.06-15.66,4.6-20.82,5.68l-1.72.37A1.64,1.64,0,0,1,318.46,336Zm-19.74-12.23.16,1s0,.07,0,.1,0,.37,1.17,1.34c4.14,3.44,16.46,9.31,18.58,8.82l1.74-.36c4.58-1,16.62-3.5,20.32-5.46,0-.24,0-.65,0-1.06-1.85-1.09-13.59-8-17.1-8.32Z" style="fill:#263238"></path><path d="M323.62,317.69s-23.34,4.27-25.23,5.53,17.52,11.3,20.36,10.67,18.31-3.75,22.4-6C342.34,327.24,328.74,318.1,323.62,317.69Z" style="fill:#263238"></path><path d="M318.51,334.41c-3.65,0-19.6-8.07-20.67-10.58a.78.78,0,0,1,.27-1c1.92-1.29,23-5.17,25.42-5.61h.13c4.87.39,17.66,8.63,18,10.43a.65.65,0,0,1-.32.71c-3.68,2-16.3,4.71-21.06,5.73l-1.47.32A1.83,1.83,0,0,1,318.51,334.41Zm-19.7-10.85c1.17,2.14,17.58,10.33,19.83,9.84l1.48-.32c4.59-1,16.54-3.53,20.47-5.46-1.44-1.69-12.3-9-16.95-9.43C314.57,319.86,300.8,322.59,298.81,323.56Z" style="fill:#263238"></path><path d="M333.58,363.87a.49.49,0,0,1-.44-.28l-1.27-2.49a.5.5,0,0,1,.22-.67.49.49,0,0,1,.67.22l1.27,2.49a.49.49,0,0,1-.22.67A.46.46,0,0,1,333.58,363.87Z" style="fill:#263238"></path><path d="M330.79,358.38a.49.49,0,0,1-.44-.28L320.62,339a.49.49,0,0,1,.22-.67.5.5,0,0,1,.67.22l9.73,19.13a.5.5,0,0,1-.22.67A.46.46,0,0,1,330.79,358.38Z" style="fill:#263238"></path><path d="M319,352.6a.49.49,0,0,1-.48-.36l-4.59-15.86a.5.5,0,0,1,.34-.62.51.51,0,0,1,.62.34L319.46,352a.5.5,0,0,1-.34.62Z" style="fill:#263238"></path><line x1="344.44" y1="330.4" x2="361.13" y2="338.33" style="fill:#11D9C5"></line><path d="M361.13,338.83a.59.59,0,0,1-.22-.05l-16.69-7.93a.5.5,0,1,1,.43-.9l16.69,7.93a.5.5,0,0,1-.21.95Z" style="fill:#263238"></path><path d="M372.81,372.21a.54.54,0,0,1-.33-.12l-1.73-1.56a.5.5,0,1,1,.67-.74l1.73,1.55a.51.51,0,0,1,0,.71A.51.51,0,0,1,372.81,372.21Z" style="fill:#263238"></path><path d="M367.33,367.28a.55.55,0,0,1-.34-.13l-11.2-10.09a.48.48,0,0,1,0-.7.5.5,0,0,1,.71,0l11.2,10.08a.51.51,0,0,1,0,.71A.51.51,0,0,1,367.33,367.28Z" style="fill:#263238"></path><path d="M265.72,284.32s-.12,3.64.48,4.08,1.31.23,1.08-.95S267.52,282.72,265.72,284.32Z" style="fill:#fff"></path><path d="M266.77,289.11a1.47,1.47,0,0,1-.87-.31c-.67-.49-.74-2.72-.68-4.5a.53.53,0,0,1,.17-.36c.2-.18.83-.73,1.45-.46.77.33.81,1.52.85,2.77a7.44,7.44,0,0,0,.08,1.1c.2,1-.2,1.45-.46,1.61A1,1,0,0,1,266.77,289.11Zm-.55-4.55a9.79,9.79,0,0,0,.31,3.46.33.33,0,0,0,.26.09,1,1,0,0,0,0-.56,8.58,8.58,0,0,1-.1-1.26,5.72,5.72,0,0,0-.25-1.89S266.35,284.45,266.22,284.56Z" style="fill:#263238"></path><path d="M267,284.56s-.13,4.44.53,5,1.43.29,1.17-1.15S269,282.61,267,284.56Z" style="fill:#fff"></path><path d="M268.15,290.3a1.48,1.48,0,0,1-.94-.37c-.74-.61-.76-3.64-.71-5.39a.5.5,0,0,1,.15-.34c.21-.2.85-.84,1.52-.57.84.33.89,1.77.93,3.3,0,.54,0,1.05.09,1.37.22,1.23-.23,1.7-.53,1.87A1,1,0,0,1,268.15,290.3Zm-.65-5.52c-.05,1.89.08,4.05.36,4.39.17.14.28.14.3.13s.15-.23,0-.83a11.91,11.91,0,0,1-.11-1.51,6.77,6.77,0,0,0-.31-2.4A2.07,2.07,0,0,0,267.5,284.78Z" style="fill:#263238"></path><path d="M268.84,285.21s-.13,4.44.52,5,1.43.29,1.18-1.15S270.8,283.26,268.84,285.21Z" style="fill:#fff"></path><path d="M270,291a1.49,1.49,0,0,1-.94-.38c-.73-.61-.75-3.63-.7-5.38a.48.48,0,0,1,.14-.34c.22-.21.85-.85,1.52-.58.85.33.89,1.77.94,3.3A11.41,11.41,0,0,0,271,289c.22,1.23-.24,1.7-.53,1.87A1,1,0,0,1,270,291Zm-.65-5.53c0,1.89.09,4.05.37,4.39.16.14.28.14.3.13s.15-.24,0-.83a12.13,12.13,0,0,1-.1-1.51,7,7,0,0,0-.31-2.4A2.48,2.48,0,0,0,269.33,285.43Z" style="fill:#263238"></path><path d="M270.42,286.15s-.14,4.44.52,5,1.43.29,1.17-1.15S272.38,284.2,270.42,286.15Z" style="fill:#fff"></path><path d="M271.56,291.9a1.49,1.49,0,0,1-.94-.38c-.73-.61-.76-3.63-.7-5.38a.52.52,0,0,1,.14-.35c.21-.2.85-.84,1.52-.57.85.33.89,1.77.94,3.3a9.65,9.65,0,0,0,.09,1.37c.22,1.23-.24,1.7-.53,1.87A1,1,0,0,1,271.56,291.9Zm-.65-5.53c0,1.89.09,4.05.36,4.4a.52.52,0,0,0,.31.13s.15-.24,0-.83a12.31,12.31,0,0,1-.1-1.52,6.74,6.74,0,0,0-.32-2.4S271.1,286.21,270.91,286.37Z" style="fill:#263238"></path><path d="M268.36,277.67s-.94,3.36-.4,4.3,2.42,2.15,2.69,2.55,0,2.56,1.07,3.63c0,0,1.48,1.61,1.88-.54s-.94-5.24-.94-6.85" style="fill:#fff"></path><path d="M272.77,289.23a2.3,2.3,0,0,1-1.42-.74,4.94,4.94,0,0,1-1-3.06,6.21,6.21,0,0,0-.09-.66c-.06-.07-.43-.36-.72-.6a9,9,0,0,1-2-1.95c-.61-1.07.19-4.09.36-4.69a.5.5,0,0,1,.62-.34.49.49,0,0,1,.34.61c-.42,1.52-.71,3.45-.45,3.92a8.4,8.4,0,0,0,1.73,1.67,4.7,4.7,0,0,1,.94.86,2.39,2.39,0,0,1,.24,1.08,4.15,4.15,0,0,0,.78,2.47c.22.24.56.46.72.43s.22-.19.31-.71a11.09,11.09,0,0,0-.5-4.2,12.46,12.46,0,0,1-.45-2.56.5.5,0,0,1,.5-.5.5.5,0,0,1,.5.5,12.48,12.48,0,0,0,.42,2.33,11.61,11.61,0,0,1,.51,4.62c-.15.83-.5,1.33-1,1.48A1,1,0,0,1,272.77,289.23Z" style="fill:#263238"></path></g></svg>
